<svg xmlns="http://www.w3.org/2000/svg" viewBox="0 0 239.5 202.5"><defs><style>.cls-1{fill:#fff;}.cls-2{fill:#f4cd13;}</style></defs><g id="Capa_2" data-name="Capa 2"><g id="Capa_1-2" data-name="Capa 1"><path class="cls-1" d="M193.5,150h-27a5.5,5.5,0,0,1,0-11h27a35,35,0,0,0,0-70h-2a5.51,5.51,0,0,1-5.39-4.39C179.74,33.54,152.57,11,121.5,11,95.05,11,73,26.89,62.62,53.5l-.55,1.38a5.49,5.49,0,0,1-5.75,3.4A43,43,0,0,0,51.5,58a40.5,40.5,0,0,0,0,81H75a5.5,5.5,0,0,1,0,11H51.5a51.5,51.5,0,0,1,0-103c.63,0,1.25,0,1.88,0C65.87,17.54,91.16,0,121.5,0c34.8,0,65.4,24.16,74.37,58.06A46,46,0,0,1,193.5,150Z"/><polygon class="cls-2" points="136.5 162 123.17 162 132.5 127 104.5 168 117.15 168 107.5 202.5 136.5 162"/></g></g></svg>