<svg xmlns="http://www.w3.org/2000/svg" viewBox="0 0 174.74 95.55"><defs><style>.cls-1{fill:#bfbfbf;}</style></defs><g id="Capa_2" data-name="Capa 2"><g id="Capa_1-2" data-name="Capa 1"><path class="cls-1" d="M43,27.65c-14.23,0-24.49-4.34-35.09-8.83L3.71,17.06A6,6,0,0,1,8.29,6l4.29,1.8C30.19,15.23,44.09,21.11,79,7.43c41.61-16.31,89.6-.78,91.62-.11a6,6,0,0,1-3.77,11.39c-.67-.22-46-14.78-83.47-.11C66.5,25.22,53.63,27.65,43,27.65Z"/><path class="cls-1" d="M43,61.6c-14.23,0-24.49-4.34-35.09-8.83C6.52,52.19,5.13,51.6,3.71,51A6,6,0,0,1,8.29,39.93c1.45.59,2.88,1.2,4.29,1.79C30.19,49.18,44.09,55.06,79,41.38c41.61-16.31,89.6-.78,91.62-.11a6,6,0,0,1-3.77,11.39c-.67-.22-46-14.77-83.47-.11C66.5,59.17,53.63,61.6,43,61.6Z"/><path class="cls-1" d="M43,95.55c-14.23,0-24.49-4.34-35.09-8.82C6.52,86.14,5.13,85.55,3.71,85A6,6,0,0,1,8.29,73.88l4.29,1.8C30.19,83.13,44.09,89,79,75.33c41.61-16.31,89.6-.78,91.62-.11a6,6,0,0,1-3.77,11.39c-.67-.22-46-14.77-83.47-.11C66.5,93.12,53.63,95.55,43,95.55Z"/></g></g></svg>