<svg xmlns="http://www.w3.org/2000/svg" viewBox="0 0 312.5 224.5"><defs><style>.cls-1{fill:#da9507;}.cls-2{fill:#fff;}</style></defs><g id="Capa_2" data-name="Capa 2"><g id="Capa_1-2" data-name="Capa 1"><path class="cls-1" d="M82.05,159a5.51,5.51,0,0,1-3.86-1.58A56.26,56.26,0,0,1,99.51,64.2a56.36,56.36,0,0,1,64.8,21.65A5.5,5.5,0,0,1,155.2,92a45.26,45.26,0,1,0-69.28,57.59A5.5,5.5,0,0,1,82.05,159Z"/><path class="cls-1" d="M121.94,46.43h-.26a5.5,5.5,0,0,1-5.24-5.75l1.61-35.43a5.5,5.5,0,0,1,11,.5l-1.6,35.43A5.51,5.51,0,0,1,121.94,46.43Z"/><path class="cls-1" d="M34,197.82a5.5,5.5,0,0,1-3.71-9.56l26.22-23.89a5.5,5.5,0,0,1,7.41,8.13L37.65,196.39A5.49,5.49,0,0,1,34,197.82Z"/><path class="cls-1" d="M174.83,72.06a5.5,5.5,0,0,1-3.7-9.57l26.22-23.88a5.5,5.5,0,1,1,7.4,8.13L178.54,70.62A5.5,5.5,0,0,1,174.83,72.06Z"/><path class="cls-1" d="M40.94,118.56h-.26L5.25,117a5.5,5.5,0,0,1,.5-11l35.43,1.61a5.5,5.5,0,0,1-.24,11Z"/><path class="cls-1" d="M66.49,65.72a5.48,5.48,0,0,1-4.06-1.79L38.51,37.74a5.5,5.5,0,0,1,8.13-7.42L70.55,56.51a5.5,5.5,0,0,1-.35,7.77A5.44,5.44,0,0,1,66.49,65.72Z"/><path class="cls-2" d="M266.5,224.5h-142a51.5,51.5,0,0,1,0-103l1.88,0c12.48-29.49,37.78-47,68.12-47,34.8,0,65.4,24.16,74.37,58.06a46,46,0,0,1-2.37,91.94Zm-142-92a40.5,40.5,0,0,0,0,81h142a35,35,0,0,0,0-70h-2a5.5,5.5,0,0,1-5.39-4.4C252.74,108,225.56,85.5,194.5,85.5c-26.45,0-48.46,15.89-58.88,42.5l-.55,1.38a5.5,5.5,0,0,1-5.75,3.4A40.75,40.75,0,0,0,124.5,132.5Z"/></g></g></svg>