<svg xmlns="http://www.w3.org/2000/svg" viewBox="0 0 239.5 176.64"><defs><style>.cls-1{fill:#2aa9e6;}.cls-2{fill:#fff;}</style></defs><g id="Capa_2" data-name="Capa 2"><g id="Capa_1-2" data-name="Capa 1"><path class="cls-1" d="M89.5,154a3,3,0,0,1-2.15-.91,3,3,0,0,1,.06-4.24l9.28-9a3,3,0,1,1,4.18,4.3l-9.28,9A3,3,0,0,1,89.5,154Z"/><path class="cls-1" d="M115.36,154a3,3,0,0,1-2.09-5.15l9.28-9a3,3,0,1,1,4.18,4.3l-9.28,9A3,3,0,0,1,115.36,154Z"/><path class="cls-1" d="M141.22,154a3,3,0,0,1-2.09-5.15l9.28-9a3,3,0,0,1,4.18,4.3l-9.28,9A3,3,0,0,1,141.22,154Z"/><path class="cls-1" d="M98.64,154.14a3,3,0,0,1-2.15-.91l-9-9.28a3,3,0,0,1,4.31-4.18l9,9.28a3,3,0,0,1-2.16,5.09Z"/><path class="cls-1" d="M124.5,154.14a3,3,0,0,1-2.15-.91l-9-9.28a3,3,0,0,1,4.3-4.18l9,9.28a3,3,0,0,1-2.15,5.09Z"/><path class="cls-1" d="M150.36,154.14a3,3,0,0,1-2.16-.91l-9-9.28a3,3,0,0,1,4.31-4.18l9,9.28a3,3,0,0,1-2.15,5.09Z"/><path class="cls-1" d="M82,176.5a3,3,0,0,1-2.15-.91,3,3,0,0,1,.06-4.24l9.28-9a3,3,0,1,1,4.18,4.3l-9.28,9A3,3,0,0,1,82,176.5Z"/><path class="cls-1" d="M107.86,176.5a3,3,0,0,1-2.09-5.15l9.28-9a3,3,0,1,1,4.18,4.3l-9.28,9A3,3,0,0,1,107.86,176.5Z"/><path class="cls-1" d="M133.72,176.5a3,3,0,0,1-2.09-5.15l9.28-9a3,3,0,0,1,4.18,4.3l-9.28,9A3,3,0,0,1,133.72,176.5Z"/><path class="cls-1" d="M91.14,176.64a3,3,0,0,1-2.15-.91l-9-9.28a3,3,0,0,1,4.31-4.18l9,9.28a3,3,0,0,1-2.16,5.09Z"/><path class="cls-1" d="M117,176.64a3,3,0,0,1-2.15-.91l-9-9.28a3,3,0,0,1,4.3-4.18l9,9.28a3,3,0,0,1-2.15,5.09Z"/><path class="cls-1" d="M142.86,176.64a3,3,0,0,1-2.16-.91l-9-9.28a3,3,0,0,1,4.31-4.18l9,9.28a3,3,0,0,1-2.15,5.09Z"/><path class="cls-2" d="M193.5,150h-27a5.5,5.5,0,0,1,0-11h27a35,35,0,0,0,0-70h-2a5.51,5.51,0,0,1-5.39-4.4C179.74,33.54,152.57,11,121.5,11,95.05,11,73,26.89,62.62,53.5l-.55,1.38a5.49,5.49,0,0,1-5.75,3.4A43,43,0,0,0,51.5,58a40.5,40.5,0,0,0,0,81H75a5.5,5.5,0,0,1,0,11H51.5a51.5,51.5,0,0,1,0-103c.63,0,1.25,0,1.88,0C65.87,17.54,91.17,0,121.5,0c34.8,0,65.4,24.16,74.37,58.06A46,46,0,0,1,193.5,150Z"/></g></g></svg>