<svg xmlns="http://www.w3.org/2000/svg" viewBox="0 0 219 219"><defs><style>.cls-1{fill:#da9507;}</style></defs><g id="Capa_2" data-name="Capa 2"><g id="Capa_1-2" data-name="Capa 1"><path class="cls-1" d="M109.75,165.75A56.25,56.25,0,1,1,166,109.5,56.32,56.32,0,0,1,109.75,165.75Zm0-101.5A45.25,45.25,0,1,0,155,109.5,45.3,45.3,0,0,0,109.75,64.25Z"/><path class="cls-1" d="M67.5,219a5.5,5.5,0,0,1-5.12-7.51l13-33a5.5,5.5,0,1,1,10.24,4l-13,33A5.51,5.51,0,0,1,67.5,219Z"/><path class="cls-1" d="M138.5,44a5.5,5.5,0,0,1-5.12-7.51l13-33a5.5,5.5,0,1,1,10.24,4l-13,33A5.51,5.51,0,0,1,138.5,44Z"/><path class="cls-1" d="M6.22,158.72A5.5,5.5,0,0,1,4,148.18l32.54-14.11a5.5,5.5,0,0,1,4.37,10.09L8.4,158.27A5.43,5.43,0,0,1,6.22,158.72Z"/><path class="cls-1" d="M180.25,85.39a5.5,5.5,0,0,1-2.19-10.55L210.6,60.73A5.5,5.5,0,1,1,215,70.83l-32.55,14.1A5.44,5.44,0,0,1,180.25,85.39Z"/><path class="cls-1" d="M38.5,86a5.47,5.47,0,0,1-2-.38l-33-13a5.5,5.5,0,1,1,4-10.24l33,13A5.5,5.5,0,0,1,38.5,86Z"/><path class="cls-1" d="M213.5,157a5.47,5.47,0,0,1-2-.38l-33-13a5.5,5.5,0,1,1,4-10.24l33,13a5.5,5.5,0,0,1-2,10.62Z"/><path class="cls-1" d="M79.81,44.29a5.49,5.49,0,0,1-5-3.31L60.62,8.46A5.5,5.5,0,1,1,70.7,4.07L84.85,36.6A5.5,5.5,0,0,1,82,43.83,5.35,5.35,0,0,1,79.81,44.29Z"/><path class="cls-1" d="M153.35,218.24a5.5,5.5,0,0,1-5-3.31L134.16,182.4A5.5,5.5,0,1,1,144.24,178l14.15,32.53a5.51,5.51,0,0,1-5,7.69Z"/></g></g></svg>