<svg xmlns="http://www.w3.org/2000/svg" viewBox="0 0 172.39 180"><defs><style>.cls-1{fill:#bfbfbf;}</style></defs><g id="Capa_2" data-name="Capa 2"><g id="Capa_1-2" data-name="Capa 1"><path class="cls-1" d="M88,180h-14a6,6,0,0,1,0-12H88a6,6,0,0,1,0,12Z"/><path class="cls-1" d="M82.1,156H52.83a6,6,0,1,1,0-12H82.1a6,6,0,0,1,0,12Z"/><path class="cls-1" d="M90.29,132h-48a6,6,0,1,1,0-12h48a6,6,0,1,1,0,12Z"/><path class="cls-1" d="M98.49,108.59H32.93a6,6,0,0,1,0-12H98.49a6,6,0,0,1,0,12Z"/><path class="cls-1" d="M126.59,84H40a6,6,0,0,1,0-12h86.64a6,6,0,0,1,0,12Z"/><path class="cls-1" d="M144.15,60H47a6,6,0,1,1,0-12h97.17a6,6,0,0,1,0,12Z"/><path class="cls-1" d="M155.85,36H24.73a6,6,0,0,1,0-12H155.85a6,6,0,0,1,0,12Z"/><path class="cls-1" d="M166.39,12H6A6,6,0,0,1,6,0H166.39a6,6,0,0,1,0,12Z"/></g></g></svg>