<svg xmlns="http://www.w3.org/2000/svg" viewBox="0 0 233.3 150.5"><defs><style>.cls-1{fill:#bfbfbf;}</style></defs><g id="Capa_2" data-name="Capa 2"><g id="Capa_1-2" data-name="Capa 1"><path class="cls-1" d="M31,55.5a6,6,0,0,1,0-12l80.5-.5h2a16,16,0,0,0,16-16c0-8.55-6.88-15-16-15a6,6,0,0,1,0-12c15.7,0,28,11.86,28,27a28,28,0,0,1-28,28h-2L31,55.5Z"/><path class="cls-1" d="M136,150.5a6,6,0,0,1,0-12c9.12,0,16-6.45,16-15a16,16,0,0,0-16-16H43a6,6,0,0,1,0-12h93a28,28,0,0,1,28,28C164,138.64,151.7,150.5,136,150.5Z"/><path class="cls-1" d="M196.86,142a6,6,0,0,1,0-12c13.93,0,24.44-9.91,24.44-23.06A24.46,24.46,0,0,0,196.86,82.5H6a6,6,0,0,1,0-12H196.86a36.49,36.49,0,0,1,36.44,36.44C233.3,126.6,217.29,142,196.86,142Z"/></g></g></svg>